<svg xmlns="http://www.w3.org/2000/svg" width="31.231" height="31.231" viewBox="0 0 31.231 31.231"><defs><style>.a{fill:none;}.b{fill:#fff;}</style></defs><g transform="translate(0.001 0)"><g transform="translate(-0.001 0)"><path class="a" d="M31.231,0H0V31.231H31.231Z"/></g><g transform="translate(5.204 5.736)"><path class="b" d="M5.719,12.986H20.254L13.9,6.636a1.312,1.312,0,0,1,0-1.848h0a1.3,1.3,0,0,1,1.835,0l8.576,8.576a1.3,1.3,0,0,1,0,1.835l-8.576,8.576a1.3,1.3,0,0,1-1.835,0h0a1.3,1.3,0,0,1,0-1.835l6.35-6.35H5.719a1.305,1.305,0,0,1-1.3-1.3h0A1.305,1.305,0,0,1,5.719,12.986Z" transform="translate(-4.417 -4.408)"/></g></g></svg>