<svg xmlns="http://www.w3.org/2000/svg" width="30.07" height="33.251" viewBox="0 0 30.07 33.251"><defs><style>.a,.b{fill:none;stroke:#707070;stroke-width:2px;}.a{stroke-linecap:square;}</style></defs><g transform="translate(0.854 1.017)"><g transform="translate(0.146 0)"><g transform="translate(0 0)"><g transform="translate(0 0)"><path class="a" d="M27.952,5.082H24.833V3.522c0-.858.041-1.614,0-1.6s0,.747,0,1.6V5.082l-10.92.112L9.238,5.082V3.522c0-.858.022-1.609,0-1.6s0,.747,0,1.6V5.082H6.119A3.1,3.1,0,0,0,3.016,8.2L3,30.033a3.118,3.118,0,0,0,3.119,3.119H27.952a3.128,3.128,0,0,0,3.119-3.119V8.2A3.128,3.128,0,0,0,27.952,5.082Z" transform="translate(-3 -1.918)"/></g></g></g><line class="b" x2="28.448" transform="translate(0 10.876)"/></g></svg>