<svg xmlns="http://www.w3.org/2000/svg" width="35" height="31" viewBox="0 0 35 31"><defs><style>.a,.b,.f{fill:none;}.b,.c{stroke:#747474;}.b{stroke-linecap:round;stroke-width:2px;}.c{fill:#747474;}.d,.e{stroke:none;}.e{fill:#707070;}</style></defs><g transform="translate(-0.182 -0.225)"><g class="a" transform="translate(0.182 0.225)"><path class="d" d="M14.888,4.628a3,3,0,0,1,5.225,0l12.361,21.9A3,3,0,0,1,29.861,31H5.139a3,3,0,0,1-2.612-4.475Z"/><path class="e" d="M 17.49999809265137 5.102582931518555 C 17.3244571685791 5.102582931518555 16.88821792602539 5.152122497558594 16.62917900085449 5.610992431640625 L 4.267738342285156 27.50840187072754 C 4.012998580932617 27.95965194702148 4.18792724609375 28.3551025390625 4.274957656860352 28.50418281555176 C 4.361997604370117 28.65326309204102 4.620378494262695 29.00000190734863 5.138557434082031 29.00000190734863 L 29.8614387512207 29.00000190734863 C 30.37961769104004 29.00000190734863 30.63799858093262 28.65326309204102 30.72502899169922 28.50419235229492 C 30.81206893920898 28.35511207580566 30.98699760437012 27.95965194702148 30.73225784301758 27.50840187072754 L 18.37081718444824 5.610992431640625 C 18.11177825927734 5.152122497558594 17.67553901672363 5.102582931518555 17.49999809265137 5.102582931518555 M 17.49999809265137 3.10258674621582 C 18.51922988891602 3.10258674621582 19.5384635925293 3.610992431640625 20.11246871948242 4.627801895141602 L 32.47390747070313 26.52521133422852 C 33.60285949707031 28.52507209777832 32.157958984375 31.00000190734863 29.8614387512207 31.00000190734863 L 5.138557434082031 31.00000190734863 C 2.842048645019531 31.00000190734863 1.397129058837891 28.52507209777832 2.526088714599609 26.52521133422852 L 14.88752746582031 4.627801895141602 C 15.46153259277344 3.610992431640625 16.48076629638672 3.10258674621582 17.49999809265137 3.10258674621582 Z"/></g><g transform="translate(16.773 13.692)"><line class="b" y2="8.146" transform="translate(0.877 0)"/><g class="c" transform="translate(0 10.738)"><ellipse class="d" cx="0.877" cy="0.877" rx="0.877" ry="0.877"/><ellipse class="f" cx="0.877" cy="0.877" rx="0.377" ry="0.377"/></g></g></g></svg>