<svg xmlns="http://www.w3.org/2000/svg" width="30.852" height="30.353" viewBox="0 0 30.852 30.353"><defs><style>.a,.b{fill:none;stroke-width:2px;}.a{stroke:#747474;stroke-linecap:square;}.b{stroke:#707070;stroke-linecap:round;}.c{fill:#747474;}.d,.e{stroke:none;}.e{fill:#747474;}</style></defs><g transform="translate(1 1.277)"><g transform="translate(0 0)"><g transform="translate(0 0)"><g transform="translate(0 0)"><g transform="translate(0 0)"><g transform="translate(0 0)"><g transform="translate(0 0)"><path class="a" d="M20.826,7.7c-.052-.014-7.022,0-14.707,0a3.1,3.1,0,0,0-3.1,3.119L3,32.652a3.118,3.118,0,0,0,3.119,3.119H27.952a3.128,3.128,0,0,0,3.119-3.119V17.625H20.826Z" transform="translate(-3 -7.694)"/><line class="b" x2="9.441" y2="8.497" transform="translate(18.999 0.135)"/></g></g></g></g></g></g><g class="c" transform="translate(4.085 3.62)"><path class="d" d="M 2.036489486694336 3.57297945022583 C 1.189269542694092 3.57297945022583 0.4999994933605194 2.88370943069458 0.4999994933605194 2.036489486694336 C 0.4999994933605194 1.189269542694092 1.189269542694092 0.4999994933605194 2.036489486694336 0.4999994933605194 C 2.88370943069458 0.4999994933605194 3.57297945022583 1.189269542694092 3.57297945022583 2.036489486694336 C 3.57297945022583 2.88370943069458 2.88370943069458 3.57297945022583 2.036489486694336 3.57297945022583 Z"/><path class="e" d="M 2.036489486694336 0.9999995231628418 C 1.464969396591187 0.9999995231628418 0.9999995231628418 1.464969396591187 0.9999995231628418 2.036489486694336 C 0.9999995231628418 2.608009338378906 1.464969396591187 3.07297945022583 2.036489486694336 3.07297945022583 C 2.608009338378906 3.07297945022583 3.07297945022583 2.608009338378906 3.07297945022583 2.036489486694336 C 3.07297945022583 1.464969396591187 2.608009338378906 0.9999995231628418 2.036489486694336 0.9999995231628418 M 2.036489486694336 -4.76837158203125e-07 C 3.161209583282471 -4.76837158203125e-07 4.07297945022583 0.9117693901062012 4.07297945022583 2.036489486694336 C 4.07297945022583 3.161209583282471 3.161209583282471 4.07297945022583 2.036489486694336 4.07297945022583 C 0.9117693901062012 4.07297945022583 -4.76837158203125e-07 3.161209583282471 -4.76837158203125e-07 2.036489486694336 C -4.76837158203125e-07 0.9117693901062012 0.9117693901062012 -4.76837158203125e-07 2.036489486694336 -4.76837158203125e-07 Z"/></g></g></svg>