<svg xmlns="http://www.w3.org/2000/svg" width="30.07" height="30.07" viewBox="0 0 30.07 30.07"><defs><style>.a,.b{fill:none;stroke:#747474;}.a{stroke-linecap:square;stroke-width:2px;}.b{stroke-width:1.5px;}</style></defs><g transform="translate(1 1)"><g transform="translate(0 0)"><g transform="translate(0 0)"><g transform="translate(0 0)"><g transform="translate(0 0)"><g transform="translate(0 0)"><path class="a" d="M27.952,7.7H6.119a3.1,3.1,0,0,0-3.1,3.119L3,32.652a3.118,3.118,0,0,0,3.119,3.119H27.952a3.128,3.128,0,0,0,3.119-3.119V10.82A3.128,3.128,0,0,0,27.952,7.7Z" transform="translate(-3 -7.701)"/></g></g></g></g></g><path class="b" d="M7.406,7.332A4.166,4.166,0,1,0,3.24,3.166,4.167,4.167,0,0,0,7.406,7.332Zm3.7,1.755H9.515a5.036,5.036,0,0,1-4.218,0H3.7A3.7,3.7,0,0,0,0,12.79v.463a1.389,1.389,0,0,0,1.389,1.389H13.424a1.389,1.389,0,0,0,1.389-1.389V12.79A3.7,3.7,0,0,0,11.109,9.087Z" transform="translate(6.789 6.883)"/></g></svg>